{"glyphs":{":":{"x_min":0,"x_max":194,"ha":194,"o":"m 86 543 b 58 543 38 522 38 495 b 38 468 58 448 86 448 b 113 448 133 468 133 495 b 133 522 113 543 86 543 z m 86 81 b 58 81 38 61 38 34 b 38 6 58 -14 86 -14 b 113 -14 133 6 133 34 b 133 61 113 81 86 81 z"},"$":{"x_min":0,"x_max":561,"ha":561,"o":"m 508 171 b 508 274 448 338 310 381 l 310 653 b 387 646 429 593 438 511 l 504 511 b 492 612 430 696 310 703 l 310 780 l 266 780 l 266 703 b 160 693 80 626 80 516 b 80 400 158 350 266 320 l 266 37 b 183 46 129 99 118 184 l 53 184 b 61 63 147 -7 266 -13 l 266 -90 l 310 -90 l 310 -13 b 428 -4 508 68 508 171 z m 146 524 b 146 601 197 644 266 653 l 266 388 b 191 411 146 445 146 524 z m 310 312 b 403 282 441 235 441 164 b 441 88 390 43 310 37 z"},"?":{"x_min":0,"x_max":508,"ha":508,"o":"m 260 704 b 133 704 45 621 41 494 l 105 494 b 112 595 168 654 258 654 b 340 654 392 603 392 523 b 392 461 368 417 302 345 b 231 269 215 232 210 154 l 272 154 b 274 222 289 255 361 325 b 426 390 461 453 461 523 b 461 624 390 704 260 704 z m 241 81 b 214 81 194 61 194 34 b 194 6 214 -14 241 -14 b 269 -14 289 6 289 34 b 289 61 269 81 241 81 z"},"<":{"x_min":0,"x_max":561,"ha":561,"o":"m 492 437 l 492 489 l 91 290 l 91 240 l 492 41 l 492 94 l 139 266 z"},"'":{"x_min":0,"x_max":139,"ha":139,"o":"m 92 487 l 99 735 l 35 735 l 42 487 z"},"=":{"x_min":0,"x_max":561,"ha":561,"o":"m 491 391 l 491 434 l 71 434 l 71 391 z m 491 198 l 491 241 l 71 241 l 71 198 z"},"a":{"x_min":0,"x_max":517,"ha":517,"o":"m 390 0 l 452 0 b 445 63 442 101 442 148 l 442 333 b 442 358 442 380 440 403 b 432 490 377 543 260 543 b 148 543 69 476 62 372 l 127 372 b 135 454 187 493 260 493 b 336 493 373 458 378 397 b 380 376 380 356 380 332 l 380 313 l 346 313 b 155 313 40 254 40 133 b 40 37 110 -14 208 -14 b 266 -14 318 3 355 40 l 381 96 z m 227 35 b 150 35 108 71 108 138 b 108 240 231 275 380 265 l 380 204 b 380 105 319 35 227 35 z"},"L":{"x_min":0,"x_max":562,"ha":562,"o":"m 546 51 l 161 51 l 161 690 l 99 690 l 99 0 l 546 0 z"},"3":{"x_min":0,"x_max":561,"ha":561,"o":"m 372 363 b 449 384 503 449 503 530 b 503 632 428 704 302 704 b 173 704 87 629 75 504 l 74 494 l 136 494 l 137 504 b 146 602 211 654 295 654 b 375 654 434 606 434 523 b 434 429 353 377 267 377 l 250 377 l 250 325 l 267 325 b 392 325 448 270 448 186 b 448 91 377 36 282 36 b 185 36 118 93 108 194 l 107 204 l 45 204 l 46 194 b 61 50 150 -14 277 -14 b 407 -14 517 62 517 189 b 517 284 462 342 372 363 z"},";":{"x_min":0,"x_max":194,"ha":194,"o":"m 86 543 b 58 543 38 522 38 495 b 38 468 58 448 86 448 b 113 448 133 468 133 495 b 133 522 113 543 86 543 z m 114 68 l 113 78 l 46 78 l -20 -119 l 38 -119 z"},"J":{"x_min":0,"x_max":526,"ha":526,"o":"m 466 690 l 404 690 l 404 261 b 404 227 404 202 403 181 b 395 91 349 36 262 36 b 176 36 121 83 116 194 l 114 231 l 52 231 l 53 194 b 57 61 131 -14 254 -14 b 393 -14 457 70 464 177 b 466 210 466 235 466 263 z"},"V":{"x_min":0,"x_max":607,"ha":607,"o":"m 362 0 l 618 690 l 551 690 l 322 48 l 97 690 l 30 690 l 279 0 z"},"\"":{"x_min":0,"x_max":268,"ha":268,"o":"m 119 487 l 126 735 l 62 735 l 69 487 z m 233 487 l 241 735 l 176 735 l 184 487 z"},"7":{"x_min":0,"x_max":561,"ha":561,"o":"m 523 690 l 48 690 l 48 638 l 445 638 l 104 0 l 171 0 l 523 661 z"},"S":{"x_min":0,"x_max":576,"ha":576,"o":"m 303 704 b 181 704 79 630 79 518 b 79 407 157 361 288 327 b 417 295 469 257 469 168 b 469 88 396 36 305 36 b 206 36 130 91 113 190 l 47 190 b 62 57 163 -14 303 -14 b 435 -14 535 64 535 178 b 535 292 461 348 313 386 b 195 416 146 447 146 531 b 146 613 219 654 298 654 b 389 654 449 599 461 505 l 526 505 b 513 617 441 704 303 704 z"},"}":{"x_min":0,"x_max":300,"ha":300,"o":"m 231 372 b 171 378 150 411 150 455 b 150 482 152 509 160 565 b 170 632 172 651 172 672 b 172 755 120 780 38 780 l 25 780 l 25 737 l 39 737 b 100 737 127 718 127 673 b 127 650 125 635 117 575 b 107 507 104 481 104 453 b 104 400 134 356 193 349 b 134 342 104 300 104 247 b 104 219 107 194 117 125 b 125 65 127 50 127 27 b 127 -18 100 -37 39 -37 l 25 -37 l 25 -80 l 38 -80 b 120 -80 172 -55 172 28 b 172 49 170 68 160 135 b 152 191 150 219 150 245 b 150 289 171 322 231 328 z"},"Z":{"x_min":0,"x_max":571,"ha":571,"o":"m 548 52 l 116 52 l 542 639 l 542 690 l 70 690 l 70 638 l 470 638 l 42 48 l 42 0 l 548 0 z"},"x":{"x_min":0,"x_max":458,"ha":458,"o":"m 258 268 l 444 529 l 372 529 l 224 308 l 78 529 l 5 529 l 186 267 l -3 0 l 69 0 l 221 227 l 372 0 l 445 0 z"},")":{"x_min":0,"x_max":307,"ha":307,"o":"m 32 780 b 105 658 147 504 147 350 b 147 196 105 42 32 -80 l 76 -80 b 149 30 195 192 195 350 b 195 508 149 670 76 780 z"},"&":{"x_min":0,"x_max":649,"ha":649,"o":"m 621 374 l 519 374 l 519 501 l 457 501 l 457 374 l 379 374 b 357 374 336 374 317 375 b 241 379 167 405 167 513 b 167 600 233 654 332 654 b 381 654 414 651 455 643 l 455 694 b 417 701 384 704 335 704 b 195 704 98 624 98 510 b 98 418 157 365 236 349 b 133 331 66 260 66 167 b 66 25 175 -14 336 -14 b 394 -14 462 -7 519 5 l 519 322 l 621 322 z m 135 176 b 135 262 203 310 318 320 b 338 322 357 322 379 322 l 457 322 l 457 46 b 418 39 379 36 338 36 b 205 36 135 71 135 176 z"},"_":{"x_min":0,"x_max":500,"ha":500,"o":"m 450 -84 l 450 -41 l 50 -41 l 50 -84 z"},"v":{"x_min":0,"x_max":497,"ha":497,"o":"m 490 529 l 424 529 l 250 46 l 74 529 l 6 529 l 209 0 l 286 0 z"},"O":{"x_min":0,"x_max":728,"ha":728,"o":"m 369 704 b 168 704 49 555 49 345 b 49 137 168 -14 369 -14 b 571 -14 690 137 690 345 b 690 555 571 704 369 704 z m 369 36 b 221 36 118 152 118 345 b 118 539 221 654 369 654 b 518 654 621 539 621 345 b 621 152 518 36 369 36 z"},"(":{"x_min":0,"x_max":307,"ha":307,"o":"m 227 780 b 154 670 108 508 108 350 b 108 192 154 30 227 -80 l 272 -80 b 198 42 156 196 156 350 b 156 504 198 658 272 780 z"},"C":{"x_min":0,"x_max":691,"ha":691,"o":"m 370 704 b 181 704 49 554 49 342 b 49 132 167 -14 356 -14 b 532 -14 622 92 640 219 l 641 229 l 579 229 l 577 219 b 556 113 488 36 360 36 b 220 36 118 153 118 345 b 118 533 225 654 367 654 b 490 654 559 580 580 475 l 582 465 l 644 465 l 643 475 b 625 606 536 704 370 704 z"},"W":{"x_min":0,"x_max":904,"ha":904,"o":"m 900 690 l 835 690 l 673 56 l 506 680 l 423 680 l 249 56 l 96 690 l 26 690 l 205 0 l 287 0 l 463 618 l 630 0 l 711 0 z"},"A":{"x_min":0,"x_max":630,"ha":630,"o":"m 462 253 l 552 0 l 619 0 l 370 690 l 287 690 l 32 0 l 98 0 l 187 253 z m 205 305 l 327 640 l 444 305 z"},"f":{"x_min":0,"x_max":268,"ha":268,"o":"m 144 641 b 150 688 190 711 260 697 l 260 749 b 242 752 225 754 204 754 b 139 754 90 716 82 643 b 80 624 80 602 80 584 l 80 525 l 23 525 l 23 475 l 80 475 l 80 0 l 142 0 l 142 475 l 250 475 l 250 525 l 142 525 l 142 589 b 142 604 142 624 144 641 z"},"Q":{"x_min":0,"x_max":726,"ha":726,"o":"m 690 345 b 690 555 571 704 369 704 b 168 704 49 555 49 345 b 49 137 168 -14 369 -14 b 396 -14 418 -12 440 -7 b 468 -1 485 2 511 2 b 552 2 586 -8 648 -52 l 684 -9 b 640 28 600 50 550 55 b 649 121 690 229 690 345 z m 118 345 b 118 539 221 654 369 654 b 518 654 621 539 621 345 b 621 152 518 36 369 36 b 221 36 118 152 118 345 z"},"w":{"x_min":0,"x_max":759,"ha":759,"o":"m 752 529 l 686 529 l 551 62 l 421 528 l 342 528 l 213 57 l 77 529 l 6 529 l 174 0 l 250 0 l 380 466 l 510 0 l 585 0 z"},"-":{"x_min":0,"x_max":274,"ha":274,"o":"m 242 261 l 242 304 l 32 304 l 32 261 z"},"E":{"x_min":0,"x_max":576,"ha":576,"o":"m 546 51 l 161 51 l 161 319 l 510 319 l 510 371 l 161 371 l 161 639 l 536 639 l 536 690 l 99 690 l 99 0 l 546 0 z"},"s":{"x_min":0,"x_max":450,"ha":450,"o":"m 223 543 b 119 543 47 483 47 392 b 47 301 122 264 213 240 b 316 215 354 186 354 127 b 354 66 299 35 232 35 b 161 35 104 66 89 156 l 25 156 b 40 36 123 -14 228 -14 b 337 -14 417 38 417 132 b 417 221 359 265 237 295 b 161 314 111 338 111 399 b 111 457 154 493 218 493 b 289 493 332 454 347 381 l 412 381 b 400 474 338 543 223 543 z"},">":{"x_min":0,"x_max":561,"ha":561,"o":"m 465 290 l 64 489 l 64 436 l 417 265 l 64 93 l 64 41 l 465 240 z"},"l":{"x_min":0,"x_max":219,"ha":219,"o":"m 131 735 l 69 735 l 69 138 b 69 106 69 85 70 67 b 73 10 104 -4 145 -4 b 161 -4 178 -4 194 -1 l 194 45 b 149 40 134 49 132 83 b 131 99 131 117 131 140 z"},"8":{"x_min":0,"x_max":561,"ha":561,"o":"m 382 362 b 451 384 501 442 501 521 b 501 629 422 704 287 704 b 155 704 74 629 74 521 b 74 443 119 385 185 362 b 103 338 42 272 42 186 b 42 46 150 -15 281 -15 b 402 -15 519 46 519 186 b 519 273 463 340 382 362 z m 141 519 b 141 596 193 654 287 654 b 382 654 434 596 434 519 b 434 434 373 383 287 383 b 201 383 141 434 141 519 z m 283 35 b 182 35 111 90 111 184 b 111 266 167 333 283 333 b 399 333 450 266 450 184 b 450 90 380 35 283 35 z"},"\\":{"x_min":0,"x_max":288,"ha":288,"o":"m 293 -30 l 42 720 l -5 720 l 246 -30 z"},"e":{"x_min":0,"x_max":539,"ha":539,"o":"m 500 279 b 500 425 423 543 275 543 b 136 543 30 434 30 264 b 30 78 133 -14 265 -14 b 371 -14 468 44 493 167 l 428 167 b 409 80 343 35 269 35 b 183 35 104 90 97 246 l 498 246 b 500 262 500 272 500 279 z m 273 493 b 362 493 430 431 437 295 l 97 295 b 106 427 186 493 273 493 z"},"b":{"x_min":0,"x_max":586,"ha":586,"o":"m 320 543 b 259 543 207 525 170 489 l 135 431 l 135 735 l 73 735 l 73 0 l 135 0 l 135 90 l 168 33 b 201 2 252 -14 304 -14 b 438 -14 556 79 556 271 b 556 428 468 543 320 543 z m 304 35 b 226 35 135 86 135 237 l 135 277 b 135 437 217 493 311 493 b 427 493 488 390 488 263 b 488 120 410 35 304 35 z"},"%":{"x_min":0,"x_max":725,"ha":725,"o":"m 193 702 b 107 702 52 638 52 543 b 52 449 107 384 193 384 b 279 384 333 449 333 543 b 333 638 279 702 193 702 z m 171 0 l 619 690 l 554 690 l 107 0 z m 193 656 b 242 656 272 614 272 543 b 272 473 242 429 193 429 b 144 429 114 473 114 543 b 114 614 144 656 193 656 z m 532 304 b 446 304 391 240 391 145 b 391 51 446 -14 532 -14 b 618 -14 672 51 672 145 b 672 240 618 304 532 304 z m 532 259 b 581 259 611 216 611 145 b 611 75 581 31 532 31 b 483 31 453 75 453 145 b 453 216 483 259 532 259 z"},"m":{"x_min":0,"x_max":838,"ha":838,"o":"m 764 401 b 752 485 699 543 604 543 b 554 543 512 529 482 497 l 441 430 b 423 498 371 543 287 543 b 237 543 196 529 165 497 l 135 438 l 135 529 l 73 529 l 73 0 l 135 0 l 135 277 b 135 434 193 493 268 493 b 338 493 377 452 386 381 b 389 354 390 327 390 284 l 390 0 l 452 0 l 452 277 b 452 434 510 493 585 493 b 655 493 694 452 703 381 b 706 354 707 327 707 284 l 707 0 l 769 0 l 769 312 b 769 355 768 374 764 401 z"},"#":{"x_min":0,"x_max":561,"ha":561,"o":"m 390 418 l 497 418 l 497 461 l 399 461 l 448 690 l 403 690 l 354 461 l 256 461 l 305 690 l 261 690 l 212 461 l 94 461 l 94 418 l 203 418 l 172 272 l 64 272 l 64 229 l 163 229 l 114 0 l 158 0 l 207 229 l 305 229 l 256 0 l 301 0 l 350 229 l 467 229 l 467 272 l 359 272 z m 345 418 l 314 272 l 216 272 l 247 418 z"},",":{"x_min":0,"x_max":194,"ha":194,"o":"m 113 63 l 113 72 l 46 72 l -20 -119 l 38 -119 z"},"n":{"x_min":0,"x_max":569,"ha":569,"o":"m 498 385 b 488 482 424 543 312 543 b 253 543 206 527 163 484 l 135 427 l 135 529 l 73 529 l 73 0 l 135 0 l 135 263 b 135 428 212 492 300 492 b 389 492 429 441 436 369 b 438 342 438 319 438 289 l 438 0 l 500 0 l 500 296 b 500 339 500 358 498 385 z"},"h":{"x_min":0,"x_max":569,"ha":569,"o":"m 498 385 b 488 482 424 543 312 543 b 253 543 206 527 163 484 l 135 427 l 135 740 l 73 740 l 73 0 l 135 0 l 135 263 b 135 428 212 491 300 492 b 389 493 429 441 436 369 b 438 342 438 319 438 289 l 438 0 l 500 0 l 500 296 b 500 339 500 358 498 385 z"},"z":{"x_min":0,"x_max":455,"ha":455,"o":"m 429 50 l 92 50 l 425 472 l 425 523 l 41 523 l 41 473 l 351 473 l 17 48 l 17 0 l 429 0 z"},"B":{"x_min":0,"x_max":612,"ha":612,"o":"m 425 366 b 500 387 548 437 548 521 b 548 618 483 675 376 687 b 342 690 321 690 291 690 l 99 690 l 99 0 l 309 0 b 338 0 359 0 390 4 b 485 15 573 76 573 196 b 573 290 522 345 425 366 z m 161 638 l 295 638 b 315 638 334 638 354 637 b 423 631 481 598 481 514 b 481 435 432 396 361 388 b 340 386 323 385 306 385 l 161 385 z m 370 53 b 357 52 339 52 323 52 l 161 52 l 161 334 l 317 334 b 333 334 348 333 371 331 b 463 323 507 272 507 190 b 507 102 443 59 370 53 z"},"K":{"x_min":0,"x_max":588,"ha":588,"o":"m 266 354 l 595 690 l 521 690 l 161 324 l 161 690 l 99 690 l 99 0 l 161 0 l 161 252 l 219 313 l 494 0 l 582 0 z"},"R":{"x_min":0,"x_max":601,"ha":601,"o":"m 531 184 b 524 256 495 319 436 343 b 508 361 566 416 566 507 b 566 617 498 673 396 686 b 364 690 337 690 302 690 l 99 690 l 99 0 l 161 0 l 161 312 l 302 312 b 318 312 338 312 356 311 b 430 307 460 250 469 177 b 479 87 491 44 508 0 l 577 0 b 553 39 541 89 531 184 z m 161 364 l 161 638 l 302 638 b 335 638 357 637 381 634 b 456 623 499 583 499 502 b 499 421 449 372 373 366 b 350 364 333 364 303 364 z"},"T":{"x_min":0,"x_max":600,"ha":600,"o":"m 601 639 l 601 690 l 33 690 l 33 639 l 286 639 l 286 0 l 348 0 l 348 639 z"},"P":{"x_min":0,"x_max":569,"ha":569,"o":"m 383 686 b 352 690 325 690 290 690 l 99 690 l 99 0 l 161 0 l 161 292 l 290 292 b 325 292 352 292 383 296 b 480 309 558 375 558 493 b 558 610 487 672 383 686 z m 378 350 b 355 346 328 345 295 345 l 161 345 l 161 637 l 295 637 b 328 637 355 636 378 632 b 441 622 491 581 491 493 b 491 402 441 360 378 350 z"},"|":{"x_min":0,"x_max":250,"ha":250,"o":"m 147 -200 l 147 800 l 103 800 l 103 -200 z"},"t":{"x_min":0,"x_max":284,"ha":284,"o":"m 153 477 l 254 477 l 254 525 l 153 525 l 153 642 l 91 642 l 91 525 l 23 525 l 23 477 l 91 477 l 91 144 b 91 114 91 94 92 76 b 97 18 128 -8 187 -8 b 208 -8 230 -7 251 -3 l 251 43 b 180 34 158 47 154 98 b 153 112 153 123 153 145 z"},"M":{"x_min":0,"x_max":839,"ha":839,"o":"m 764 690 l 665 690 l 433 52 l 200 690 l 99 690 l 99 0 l 161 0 l 161 372 b 161 458 161 554 159 634 b 185 555 220 458 251 374 l 392 0 l 470 0 l 610 373 b 642 458 677 555 704 635 b 702 555 702 459 702 372 l 702 0 l 764 0 z"},"g":{"x_min":0,"x_max":588,"ha":588,"o":"m 513 530 l 451 530 l 451 438 l 418 495 b 385 527 334 543 282 543 b 148 543 30 450 30 258 b 30 101 118 -14 266 -14 b 327 -14 379 3 416 40 l 451 98 l 451 85 b 451 57 451 36 450 7 b 446 -98 386 -165 274 -165 b 185 -165 122 -123 113 -45 l 111 -33 l 49 -33 l 50 -45 b 63 -160 143 -214 274 -214 b 419 -214 507 -131 512 10 b 513 41 513 82 513 134 z m 275 35 b 159 35 98 139 98 266 b 98 409 176 493 282 493 b 360 493 451 442 451 292 l 451 252 b 451 92 369 35 275 35 z"},"j":{"x_min":0,"x_max":204,"ha":204,"o":"m 98 685 b 75 685 56 667 56 643 b 56 620 75 601 98 601 b 122 601 140 620 140 643 b 140 667 122 685 98 685 z m 129 529 l 67 529 l 67 -63 b 67 -78 67 -91 66 -105 b 62 -149 35 -163 -20 -156 l -20 -207 b -7 -210 5 -210 19 -210 b 86 -210 121 -178 127 -116 b 129 -98 129 -76 129 -56 z"},"i":{"x_min":0,"x_max":210,"ha":210,"o":"m 104 685 b 81 685 62 667 62 643 b 62 620 81 601 104 601 b 128 601 146 620 146 643 b 146 667 128 685 104 685 z m 135 0 l 135 529 l 73 529 l 73 0 z"},"y":{"x_min":0,"x_max":492,"ha":492,"o":"m 485 529 l 417 529 l 247 46 l 76 529 l 6 529 l 215 -20 l 204 -48 b 170 -133 134 -158 86 -158 b 75 -158 65 -158 52 -156 l 52 -207 b 64 -210 75 -210 93 -210 b 168 -210 219 -168 273 -28 z"},"@":{"x_min":0,"x_max":852,"ha":852,"o":"m 621 465 l 561 465 l 544 400 l 531 451 b 514 471 485 483 448 483 b 323 483 233 359 233 224 b 233 103 307 67 367 67 b 407 67 442 82 475 117 l 494 156 b 500 97 544 75 596 75 b 691 75 793 156 793 334 b 793 530 661 664 469 664 b 268 664 57 507 57 243 b 57 9 223 -104 396 -104 b 483 -104 574 -84 677 -15 l 657 23 b 575 -36 487 -60 398 -60 b 241 -60 104 43 104 245 b 104 483 295 620 465 620 b 623 620 745 518 745 331 b 745 193 679 119 609 119 b 570 119 555 140 555 169 b 555 181 557 195 563 222 z m 511 262 b 490 172 439 116 382 116 b 335 116 301 149 301 230 b 301 337 363 434 450 434 b 505 434 540 390 520 301 z"},".":{"x_min":0,"x_max":194,"ha":194,"o":"m 86 81 b 58 81 38 61 38 34 b 38 6 58 -14 86 -14 b 113 -14 133 6 133 34 b 133 61 113 81 86 81 z"},"p":{"x_min":0,"x_max":586,"ha":586,"o":"m 320 543 b 259 543 207 525 170 489 l 135 431 l 135 532 l 73 532 l 73 -196 l 135 -196 l 135 90 l 168 33 b 201 2 252 -14 304 -14 b 438 -14 556 79 556 271 b 556 428 468 543 320 543 z m 304 35 b 226 35 135 86 135 237 l 135 277 b 135 437 217 493 311 493 b 427 493 488 390 488 263 b 488 120 410 35 304 35 z"},"X":{"x_min":0,"x_max":605,"ha":605,"o":"m 524 0 l 598 0 l 347 349 l 594 690 l 521 690 l 312 390 l 114 690 l 44 690 l 273 347 l 26 0 l 99 0 l 309 306 z"},"*":{"x_min":0,"x_max":549,"ha":549,"o":"m 291 290 l 298 475 l 251 475 l 258 290 l 101 350 l 87 304 l 246 259 l 133 117 l 172 89 l 274 242 l 377 89 l 416 117 l 303 259 l 462 304 l 447 350 z"},"Y":{"x_min":0,"x_max":568,"ha":568,"o":"m 327 276 l 572 690 l 501 690 l 299 336 l 92 690 l 21 690 l 265 275 l 265 0 l 327 0 z"},"c":{"x_min":0,"x_max":525,"ha":525,"o":"m 276 543 b 143 543 30 439 30 264 b 30 77 133 -14 265 -14 b 379 -14 466 48 490 165 l 426 165 b 407 80 347 35 269 35 b 180 35 98 106 98 269 b 98 422 185 494 274 494 b 359 494 412 445 430 356 l 495 356 b 479 468 398 543 276 543 z"},"!":{"x_min":0,"x_max":227,"ha":227,"o":"m 142 154 l 151 690 l 76 690 l 85 154 z m 114 81 b 86 81 66 61 66 34 b 66 6 86 -14 114 -14 b 141 -14 161 6 161 34 b 161 61 141 81 114 81 z"},"/":{"x_min":0,"x_max":288,"ha":288,"o":"m 42 -30 l 293 720 l 246 720 l -5 -30 z"},"[":{"x_min":0,"x_max":309,"ha":309,"o":"m 270 780 l 111 780 l 111 -80 l 270 -80 l 270 -37 l 155 -37 l 155 737 l 270 737 z"},"6":{"x_min":0,"x_max":561,"ha":561,"o":"m 292 463 b 231 463 181 441 141 397 l 109 340 b 116 582 197 654 296 654 b 376 654 423 610 441 522 l 443 512 l 509 512 l 508 522 b 493 633 420 704 301 704 b 155 704 43 588 43 307 b 43 80 132 -14 279 -14 b 418 -14 518 87 518 227 b 518 361 436 463 292 463 z m 280 36 b 178 36 116 121 116 229 b 116 344 191 413 282 413 b 392 413 449 328 449 221 b 449 115 380 36 280 36 z"},"r":{"x_min":0,"x_max":303,"ha":303,"o":"m 264 541 b 230 541 197 526 173 501 l 135 433 l 135 529 l 73 529 l 73 0 l 135 0 l 135 297 b 135 438 203 495 295 488 l 295 537 b 286 540 275 541 264 541 z"},"2":{"x_min":0,"x_max":561,"ha":561,"o":"m 144 52 l 336 240 b 453 354 507 423 507 515 b 507 618 440 704 304 704 b 175 704 89 626 75 489 l 74 479 l 136 479 l 137 489 b 148 592 203 654 297 654 b 390 654 438 588 438 509 b 438 437 399 384 298 283 l 53 37 l 53 0 l 507 0 l 507 52 z"},"{":{"x_min":0,"x_max":300,"ha":300,"o":"m 275 737 l 275 780 l 262 780 b 180 780 129 755 129 672 b 129 651 131 632 140 565 b 148 509 151 482 151 455 b 151 411 129 378 69 372 l 69 328 b 129 322 151 289 151 245 b 151 219 148 191 140 135 b 131 68 129 49 129 28 b 129 -55 180 -80 262 -80 l 275 -80 l 275 -37 l 261 -37 b 201 -37 173 -18 173 27 b 173 50 176 65 184 125 b 193 194 196 219 196 247 b 196 300 166 344 107 351 b 167 358 196 400 196 453 b 196 481 193 507 184 575 b 176 635 173 650 173 673 b 173 718 201 737 261 737 z"},"9":{"x_min":0,"x_max":561,"ha":561,"o":"m 282 704 b 144 704 44 603 44 463 b 44 329 126 227 269 227 b 330 227 381 249 420 293 l 453 350 b 446 112 365 36 265 36 b 185 36 138 80 120 168 l 118 178 l 52 178 l 54 168 b 69 57 142 -14 261 -14 b 406 -14 518 106 518 383 b 518 610 429 704 282 704 z m 280 277 b 169 277 113 362 113 470 b 113 576 181 654 282 654 b 384 654 446 569 446 462 b 446 347 370 277 280 277 z"}," ":{"x_min":0,"x_max":204,"ha":204,"o":""},"I":{"x_min":0,"x_max":236,"ha":236,"o":"m 161 0 l 161 690 l 99 690 l 99 0 z"},"H":{"x_min":0,"x_max":702,"ha":702,"o":"m 627 690 l 565 690 l 565 365 l 161 365 l 161 690 l 99 690 l 99 0 l 161 0 l 161 312 l 565 312 l 565 0 l 627 0 z"},"4":{"x_min":0,"x_max":561,"ha":561,"o":"m 532 184 l 532 235 l 440 235 l 440 690 l 380 690 l 29 217 l 29 184 l 378 184 l 378 0 l 440 0 l 440 184 z m 378 235 l 108 235 l 309 505 b 337 544 359 578 378 607 z"},"~":{"x_min":0,"x_max":561,"ha":561,"o":"m 449 354 b 449 301 435 270 394 270 b 365 270 339 283 291 309 b 232 341 209 352 170 352 b 104 352 69 310 69 225 l 112 225 b 112 278 126 309 167 309 b 196 309 223 296 270 270 b 329 238 352 227 391 227 b 457 227 492 269 492 354 z"},"D":{"x_min":0,"x_max":698,"ha":698,"o":"m 387 687 b 356 690 340 690 304 690 l 99 690 l 99 0 l 301 0 b 336 0 354 0 389 4 b 524 21 660 133 660 351 b 660 571 527 671 387 687 z m 383 56 b 356 52 332 52 298 52 l 161 52 l 161 638 l 301 638 b 337 638 359 638 381 635 b 495 619 592 528 592 351 b 592 172 497 73 383 56 z"},"^":{"x_min":0,"x_max":561,"ha":561,"o":"m 430 215 l 482 215 l 308 616 l 255 616 l 81 215 l 134 215 l 282 573 z"},"0":{"x_min":0,"x_max":561,"ha":561,"o":"m 281 704 b 100 704 39 550 39 345 b 39 141 100 -14 281 -14 b 461 -14 522 141 522 345 b 522 549 461 704 281 704 z m 281 36 b 155 36 108 161 108 345 b 108 530 155 654 281 654 b 407 654 453 529 453 345 b 453 161 407 36 281 36 z"},"F":{"x_min":0,"x_max":554,"ha":554,"o":"m 161 639 l 536 639 l 536 690 l 99 690 l 99 0 l 161 0 l 161 319 l 500 319 l 500 371 l 161 371 z"},"`":{"x_min":0,"x_max":300,"ha":300,"o":"m 175 580 l 114 690 l 53 690 l 132 580 z"},"k":{"x_min":0,"x_max":498,"ha":498,"o":"m 403 0 l 489 0 l 228 276 l 487 529 l 406 529 l 135 254 l 135 735 l 73 735 l 73 0 l 135 0 l 135 186 l 183 237 z"},"u":{"x_min":0,"x_max":567,"ha":567,"o":"m 492 529 l 430 529 l 430 266 b 430 100 355 36 267 36 b 185 36 139 85 131 155 b 128 182 127 209 127 234 l 127 529 l 65 529 l 65 220 b 65 177 66 158 69 131 b 81 47 145 -14 253 -14 b 311 -14 359 2 401 43 l 430 102 l 430 0 l 492 0 z"},"]":{"x_min":0,"x_max":301,"ha":301,"o":"m 190 -80 l 190 780 l 31 780 l 31 737 l 146 737 l 146 -37 l 31 -37 l 31 -80 z"},"U":{"x_min":0,"x_max":651,"ha":651,"o":"m 583 690 l 521 690 l 521 250 b 521 228 520 208 518 189 b 510 102 453 36 338 36 b 222 36 165 102 157 189 b 155 208 155 228 155 250 l 155 690 l 93 690 l 93 247 b 93 227 93 207 95 183 b 104 71 180 -14 338 -14 b 495 -14 572 71 580 183 b 582 207 583 227 583 247 z"},"o":{"x_min":0,"x_max":574,"ha":574,"o":"m 287 543 b 119 543 30 420 30 264 b 30 109 119 -14 287 -14 b 455 -14 544 109 544 264 b 544 420 455 543 287 543 z m 287 35 b 177 35 98 120 98 264 b 98 408 177 493 287 493 b 397 493 476 408 476 264 b 476 120 397 35 287 35 z"},"N":{"x_min":0,"x_max":688,"ha":688,"o":"m 612 0 l 611 690 l 550 690 l 550 334 b 550 248 551 146 553 60 l 193 690 l 99 690 l 99 0 l 161 0 l 161 356 b 161 442 160 545 158 630 l 517 0 z"},"+":{"x_min":0,"x_max":561,"ha":561,"o":"m 487 295 l 487 337 l 303 337 l 303 549 l 258 549 l 258 337 l 74 337 l 74 295 l 258 295 l 258 86 l 303 86 l 303 295 z"},"G":{"x_min":0,"x_max":704,"ha":704,"o":"m 392 323 l 392 272 l 580 272 b 580 116 471 36 361 36 b 220 36 118 153 118 345 b 118 533 226 654 371 654 b 494 654 563 580 584 475 l 586 465 l 648 465 l 647 475 b 628 606 539 704 373 704 b 182 704 49 554 49 342 b 49 132 167 -14 357 -14 b 440 -14 513 16 559 80 l 586 142 l 586 0 l 642 0 l 642 323 z"},"q":{"x_min":0,"x_max":589,"ha":589,"o":"m 513 532 l 451 532 l 451 438 l 418 495 b 385 527 334 543 282 543 b 148 543 30 450 30 258 b 30 101 118 -14 266 -14 b 327 -14 379 3 416 40 l 451 98 l 451 -196 l 513 -196 z m 275 35 b 159 35 98 139 98 266 b 98 409 176 493 282 493 b 360 493 451 442 451 292 l 451 252 b 451 92 369 35 275 35 z"},"d":{"x_min":0,"x_max":588,"ha":588,"o":"m 513 735 l 451 735 l 451 438 l 418 495 b 385 527 334 543 282 543 b 148 543 30 450 30 258 b 30 101 118 -14 266 -14 b 327 -14 379 3 416 40 l 451 98 l 451 0 l 513 0 z m 275 35 b 159 35 98 139 98 266 b 98 409 176 493 282 493 b 360 493 451 442 451 292 l 451 252 b 451 92 369 35 275 35 z"},"1":{"x_min":0,"x_max":561,"ha":561,"o":"m 385 690 l 346 690 b 327 690 309 686 284 670 l 133 576 l 133 509 l 323 625 l 323 0 l 385 0 z"},"5":{"x_min":0,"x_max":561,"ha":561,"o":"m 295 446 b 247 446 208 434 172 410 l 131 363 l 171 637 l 497 637 l 497 689 l 121 689 l 67 291 l 126 291 b 162 366 215 396 286 396 b 384 396 447 326 447 215 b 447 98 371 36 278 36 b 184 36 132 95 118 181 l 116 191 l 54 191 l 55 181 b 69 49 156 -14 278 -14 b 404 -14 516 71 516 219 b 516 348 440 446 295 446 z"}}}
